<mxfile host="" modified="2020-07-01T09:26:44.858Z" agent="5.0 (Macintosh; Intel Mac OS X 10_15_0) AppleWebKit/537.36 (KHTML, like Gecko) Code/1.46.1 Chrome/78.0.3904.130 Electron/7.3.1 Safari/537.36" etag="8Wym8zFOGzIoS94BGGkC" version="13.1.3">
    <diagram id="6hGFLwfOUW9BJ-s0fimq" name="Page-1">
        <mxGraphModel dx="984" dy="3172" grid="1" gridSize="10" guides="1" tooltips="1" connect="1" arrows="1" fold="1" page="1" pageScale="1" pageWidth="1654" pageHeight="2336" math="0" shadow="0">
            <root>
                <mxCell id="0"/>
                <mxCell id="1" parent="0"/>
                <mxCell id="10" style="edgeStyle=orthogonalEdgeStyle;rounded=0;orthogonalLoop=1;jettySize=auto;html=1;" edge="1" parent="1" source="2" target="4">
                    <mxGeometry relative="1" as="geometry"/>
                </mxCell>
                <mxCell id="11" style="edgeStyle=orthogonalEdgeStyle;rounded=0;orthogonalLoop=1;jettySize=auto;html=1;" edge="1" parent="1" source="2" target="5">
                    <mxGeometry relative="1" as="geometry"/>
                </mxCell>
                <mxCell id="2" value="App.vue&lt;br&gt;&lt;br&gt;Data:&lt;br&gt;Import:&lt;br&gt;Components:&lt;br&gt;EventBus:&lt;br&gt;Methods:&lt;br&gt;Computed:" style="rounded=0;whiteSpace=wrap;html=1;" vertex="1" parent="1">
                    <mxGeometry x="560" y="730" width="310" height="290" as="geometry"/>
                </mxCell>
                <mxCell id="9" style="edgeStyle=orthogonalEdgeStyle;rounded=0;orthogonalLoop=1;jettySize=auto;html=1;entryX=0.5;entryY=1;entryDx=0;entryDy=0;" edge="1" parent="1" source="4" target="6">
                    <mxGeometry relative="1" as="geometry"/>
                </mxCell>
                <mxCell id="4" value="BookingsList.vue&lt;br&gt;&lt;br&gt;Data:&lt;br&gt;Import:&lt;br&gt;Components:&lt;br&gt;EventBus:&lt;br&gt;Methods:&lt;br&gt;Computed:" style="rounded=0;whiteSpace=wrap;html=1;" vertex="1" parent="1">
                    <mxGeometry x="200" y="340" width="310" height="290" as="geometry"/>
                </mxCell>
                <mxCell id="5" value="BookingForm.vue&lt;br&gt;&lt;br&gt;Data:&lt;br&gt;Import:&lt;br&gt;Components:&lt;br&gt;EventBus:&lt;br&gt;Methods:&lt;br&gt;Computed:" style="rounded=0;whiteSpace=wrap;html=1;" vertex="1" parent="1">
                    <mxGeometry x="880" y="350" width="310" height="290" as="geometry"/>
                </mxCell>
                <mxCell id="6" value="BookingItem.vue&lt;br&gt;&lt;br&gt;Data:&lt;br&gt;Import:&lt;br&gt;Components:&lt;br&gt;EventBus:&lt;br&gt;Methods:&lt;br&gt;Computed:" style="rounded=0;whiteSpace=wrap;html=1;" vertex="1" parent="1">
                    <mxGeometry x="200" y="-20" width="310" height="290" as="geometry"/>
                </mxCell>
            </root>
        </mxGraphModel>
    </diagram>
</mxfile>